<svg width="463" height="463" viewBox="0 0 463 463" fill="none" xmlns="http://www.w3.org/2000/svg">
<circle cx="231.5" cy="231.5" r="231.5" fill="#EFF6FF"/>
<path d="M250.507 200.096H221.295C219.904 200.096 218.513 199.169 218.513 197.777C218.049 195.923 219.44 194.532 221.295 194.532H245.87L203.211 128.689L212.021 194.068C212.021 194.996 210.63 195.923 210.166 194.532L205.993 187.577C201.82 181.085 197.183 175.057 191.156 169.957C185.128 164.856 178.636 160.683 171.681 157.901C169.826 156.974 169.363 154.191 171.217 153.264C172.145 152.801 173.072 152.337 173.999 151.873C179.564 149.091 185.128 147.7 191.156 148.627C192.547 148.627 193.938 150.019 193.938 151.41C193.938 153.264 192.547 154.191 190.692 154.191C187.91 153.728 185.128 154.191 182.346 154.655C180.955 155.119 180.027 155.583 178.636 156.046C184.2 158.828 189.765 162.538 194.401 166.711C197.647 169.493 200.893 172.739 203.675 175.984L195.329 115.706C195.329 112.46 198.574 111.533 199.966 113.388L252.825 194.996C254.216 197.314 252.825 200.096 250.507 200.096Z" fill="white"/>
<path d="M253.753 190.358L262.099 127.762L241.697 157.901C240.769 159.292 239.378 159.755 237.988 158.828C236.597 157.901 236.133 156.046 237.06 155.119L266.272 112.924C267.663 111.069 269.981 112.46 269.981 114.315L265.345 149.091C265.808 148.627 266.272 148.627 266.736 148.627C271.372 148.164 276.473 148.627 281.11 150.018C285.283 150.945 289.456 152.8 293.629 155.119C295.484 156.046 295.484 158.828 293.629 159.755C286.674 163.001 280.183 167.638 274.618 172.738C269.054 177.839 263.954 183.867 260.244 190.358L259.317 192.213C256.998 194.068 253.753 192.677 253.753 190.358ZM264.417 152.8L261.171 177.839C263.954 174.593 266.736 171.348 269.981 168.565C274.618 164.392 279.719 160.683 285.283 157.437C283.428 156.51 281.11 156.046 278.791 155.119C274.618 154.191 270.445 153.728 266.272 153.728C265.808 153.728 264.881 153.264 264.417 152.8Z" fill="white"/>
<path d="M212.949 141.209C212.485 141.209 212.021 141.209 211.558 140.745C210.167 140.281 209.703 138.427 210.167 137.036L231.032 83.7124C231.96 81.394 234.742 81.394 235.669 83.7124L248.652 120.807C249.116 122.198 248.652 123.589 247.261 124.053C245.87 124.98 244.016 124.053 243.552 122.662L234.278 96.6955C233.814 95.3044 231.96 95.3044 231.496 96.6955L214.804 138.89C214.804 140.281 213.876 141.209 212.949 141.209Z" fill="white"/>
<path d="M305.221 294.223L303.83 292.832L289.456 277.994L300.585 266.866L301.048 266.403C301.048 265.939 301.512 265.939 301.512 265.475C301.512 264.084 300.585 263.157 299.193 263.157C298.73 263.157 298.266 263.157 298.266 263.62C297.802 263.157 297.339 263.157 297.339 263.62L286.21 274.749L271.373 259.447L288.065 242.291L288.529 241.827C288.529 241.364 288.992 241.364 288.992 240.9C288.992 239.509 288.065 238.582 286.674 238.582C286.21 238.582 285.747 238.582 285.283 239.045L268.59 256.201L253.753 241.364L269.981 225.135L270.445 224.671C270.445 224.208 270.909 224.208 270.909 223.744C270.909 222.353 269.981 221.425 268.59 221.425C267.663 221.425 267.2 221.889 266.736 222.353L250.971 238.582L235.669 223.28L244.016 214.934C244.479 214.47 244.479 214.006 244.479 213.543C244.479 213.079 244.479 212.615 244.016 212.152C244.016 211.688 243.552 211.688 243.552 211.688C243.088 211.688 242.624 211.225 242.161 211.225C241.233 211.225 240.77 211.688 240.306 212.615L232.423 220.034L224.541 211.688C224.541 211.225 224.077 211.225 224.077 211.225C223.614 211.225 223.15 210.761 222.686 210.761C221.295 210.761 220.367 211.688 220.367 213.079C220.367 213.543 220.367 214.006 220.831 214.006C220.831 214.006 220.831 214.006 221.295 214.47L230.105 223.28L215.731 238.118L199.038 221.425C198.575 220.962 198.111 220.498 197.184 220.498C195.793 220.498 194.865 221.425 194.865 222.816C194.865 223.28 194.865 223.28 194.865 223.744L195.329 224.208L212.021 240.9L197.184 256.201L179.1 238.118L178.636 237.654C178.173 237.191 177.709 237.191 177.245 237.191C175.854 237.191 174.927 238.118 174.927 239.509C174.927 239.973 174.927 240.436 175.391 240.436C175.391 240.436 175.391 240.9 175.854 240.9L193.938 259.447L179.1 274.285L165.653 260.838C165.653 260.838 165.653 260.838 165.19 260.838C164.726 260.838 164.262 260.375 164.262 260.375C162.871 260.375 161.944 261.302 161.944 262.693C161.944 263.157 161.944 263.62 162.408 263.62C162.408 263.62 162.408 264.084 162.871 264.084L175.854 277.067L160.553 292.368L159.162 293.76L158.234 294.687C157.771 295.151 157.771 295.615 158.234 296.078L159.162 297.005L160.553 298.396L175.854 314.161L162.871 327.608C162.408 328.072 162.408 328.535 162.408 328.999C162.408 329.463 162.408 329.927 162.871 329.927C162.871 329.927 162.871 330.39 163.335 330.39C163.799 330.854 164.262 330.854 164.726 330.854C165.19 330.854 165.653 330.854 166.117 330.39L179.564 316.944L194.402 331.782L175.854 350.329C175.391 350.792 175.391 351.256 175.391 351.72C175.391 352.184 175.391 352.647 175.854 352.647C175.854 352.647 175.854 353.111 176.318 353.111C176.782 353.575 177.245 353.575 177.709 353.575C178.173 353.575 178.636 353.111 179.1 353.111L197.647 334.563L212.485 349.865L194.402 367.949C193.938 368.412 193.938 368.876 193.938 369.34C193.938 369.803 193.938 370.267 194.402 370.267C194.402 370.267 194.402 370.73 194.865 370.73C195.329 371.194 195.793 371.194 196.256 371.194C196.72 371.194 197.647 370.73 198.111 370.267L215.731 352.184L230.105 367.021L221.759 375.831C221.295 376.295 221.295 376.758 221.295 377.222C221.295 377.686 221.295 378.149 221.759 378.149C221.759 378.149 221.759 378.613 222.222 378.613C222.686 379.077 223.15 379.077 223.614 379.077C224.541 379.077 225.005 378.613 225.468 378.149L233.814 369.803L242.161 378.149C242.624 378.613 243.088 378.613 243.552 378.613C244.943 378.613 245.87 377.686 245.87 376.295C245.87 375.831 245.87 375.367 245.407 374.904L237.06 366.558L252.362 351.256L268.59 367.949C269.054 368.412 269.518 368.412 269.981 368.412C271.373 368.412 272.3 367.485 272.3 366.094C272.3 365.63 272.3 365.166 271.836 364.703L271.373 364.239L255.144 347.547L269.981 332.709L287.138 350.329C287.602 350.792 288.065 350.792 288.529 350.792C289.92 350.792 290.847 349.865 290.847 348.474C290.847 348.01 290.847 347.547 290.383 347.083C290.383 347.083 290.383 346.619 289.92 346.619L272.764 328.999L287.602 313.698L299.193 325.29C299.657 325.754 300.121 325.754 300.585 325.754C301.976 325.754 302.903 324.826 302.903 323.435C302.903 322.972 302.903 322.508 302.439 322.044L301.976 321.58L290.383 309.989L304.757 295.151L306.148 293.76C306.612 293.296 306.612 292.832 306.612 292.368C306.148 295.151 305.685 294.687 305.221 294.223ZM283.428 277.994L269.054 292.832L254.216 277.531L268.59 262.693L283.428 277.994ZM229.641 295.615L214.804 310.452L200.429 295.615L215.267 280.777L229.641 295.615ZM218.049 277.531L232.887 262.229L247.725 277.067L232.887 292.368L218.049 277.531ZM232.887 298.86L247.725 314.161L232.887 328.999L218.049 313.698L232.887 298.86ZM235.669 295.615L250.507 280.313L265.345 295.615L250.507 310.916L235.669 295.615ZM250.507 244.609L265.345 259.447L250.971 274.285L236.133 259.447L250.507 244.609ZM232.423 226.062L247.725 241.364L233.351 256.201L218.049 240.9L232.423 226.062ZM214.804 244.146L230.105 259.447L215.267 274.749L199.966 259.447L214.804 244.146ZM196.72 262.229L212.021 277.531L197.184 292.368L181.882 277.067L196.72 262.229ZM179.1 310.916L163.799 295.615L179.1 280.313L194.402 295.615L179.1 310.916ZM181.882 314.161L197.184 298.86L212.021 313.698L196.72 328.999L181.882 314.161ZM199.966 332.245L215.267 316.944L230.105 332.245L214.804 347.547L199.966 332.245ZM232.423 365.166L218.049 350.329L233.351 335.027L247.725 349.865L232.423 365.166ZM250.507 346.619L236.133 331.782L250.971 316.944L265.345 331.782L250.507 346.619ZM268.127 328.535L253.753 313.698L268.59 298.396L282.965 313.234L268.127 328.535ZM286.21 310.452L271.836 295.615L286.21 280.777L300.585 295.615L286.21 310.452Z" fill="white"/>
</svg>
