<svg width="80" height="80" viewBox="0 0 80 80" fill="none" xmlns="http://www.w3.org/2000/svg">
<circle cx="40" cy="40" r="39.5" fill="white" stroke="#D0D0D0"/>
<path d="M40.19 50.36C36.77 50.36 34.04 49.15 32 46.73L35.18 43.7C36.68 45.38 38.37 46.22 40.25 46.22C41.13 46.22 41.84 45.99 42.38 45.53C42.94 45.05 43.22 44.41 43.22 43.61C43.22 42.75 42.86 42.09 42.14 41.63C41.42 41.17 40.41 40.94 39.11 40.94H37.19L36.47 38L41.48 32.96H33.23V29H47.42V32.48L42.11 37.55C45.87 38.19 47.75 40.17 47.75 43.49C47.75 45.51 47.06 47.16 45.68 48.44C44.32 49.72 42.49 50.36 40.19 50.36Z" fill="#2B2B2B"/>
</svg>
