<svg width="80" height="80" viewBox="0 0 80 80" fill="none" xmlns="http://www.w3.org/2000/svg">
<circle cx="40" cy="40" r="39.5" fill="white" stroke="#D0D0D0"/>
<path d="M32 50.3V46.64L38.99 40.91C40.37 39.77 41.32 38.86 41.84 38.18C42.36 37.48 42.62 36.71 42.62 35.87C42.62 35.01 42.36 34.34 41.84 33.86C41.32 33.38 40.64 33.14 39.8 33.14C39.02 33.14 38.31 33.36 37.67 33.8C37.05 34.22 36.33 34.94 35.51 35.96L32.27 33.35C33.37 31.85 34.5 30.75 35.66 30.05C36.84 29.35 38.32 29 40.1 29C42.28 29 44.03 29.6 45.35 30.8C46.67 31.98 47.33 33.56 47.33 35.54C47.33 36.68 47.11 37.71 46.67 38.63C46.23 39.53 45.66 40.33 44.96 41.03C44.26 41.71 43.21 42.59 41.81 43.67L38.39 46.31H47.54V50.3H32Z" fill="#2B2B2B"/>
</svg>
