<svg width="203" height="60" viewBox="0 0 203 60" fill="none" xmlns="http://www.w3.org/2000/svg">
<g clip-path="url(#clip0_738_1341)">
<path d="M40.5 29.7C40.5499 28.2839 40.945 26.9015 41.6508 25.6728C42.3566 24.4442 43.3519 23.4065 44.55 22.65C43.757 21.5802 42.7445 20.6921 41.5804 20.0454C40.4162 19.3986 39.1273 19.0081 37.8 18.9C34.95 18.6 32.1 20.55 30.75 20.55C29.25 20.55 27 18.9 24.6 18.9C23.028 18.9313 21.4923 19.378 20.1487 20.1947C18.8052 21.0114 17.7016 22.169 16.95 23.55C13.65 29.25 16.05 37.65 19.2 42.3C20.85 44.55 22.65 47.1 25.05 46.95C27.45 46.8 28.35 45.45 31.2 45.45C34.05 45.45 34.8 46.95 37.35 46.95C39.9 46.95 41.55 44.7 43.05 42.45C44.193 40.8581 45.0554 39.0826 45.6 37.2C44.1135 36.5801 42.8396 35.5408 41.9339 34.2089C41.0283 32.8771 40.53 31.3104 40.5 29.7Z" fill="#2B2B2B"/>
<path d="M35.85 15.9001C37.1793 14.1884 37.869 12.0663 37.8 9.90015C35.6951 10.1025 33.7548 11.1265 32.4 12.7501C31.7029 13.5167 31.1703 14.4179 30.8349 15.3983C30.4995 16.3786 30.3685 17.4172 30.45 18.4501C31.481 18.4411 32.4978 18.2084 33.4301 17.7682C34.3624 17.3279 35.188 16.6906 35.85 15.9001Z" fill="#2B2B2B"/>
<path d="M74.7 46.6498H71.4L69.6 40.9498H63.3L61.65 46.6498H58.5L64.8 27.2998H68.7L74.7 46.6498ZM69 38.5498L67.35 33.4498C67.2 32.9998 66.9 31.6498 66.3 29.8498C66.15 30.5998 65.85 31.9498 65.4 33.4498L63.75 38.5498H69Z" fill="#2B2B2B"/>
<path d="M90.75 39.6002C90.8689 41.6819 90.1691 43.7275 88.8 45.3002C88.2422 45.8891 87.5664 46.3538 86.8169 46.6639C86.0674 46.9741 85.2609 47.1227 84.45 47.1002C83.6821 47.1769 82.9082 47.0345 82.2179 46.6894C81.5276 46.3442 80.9493 45.8106 80.55 45.1502V52.5002H77.4V37.5002C77.4 36.0002 77.4 34.5002 77.25 32.8502H79.95L80.1 35.1002C80.5725 34.2948 81.2543 33.6324 82.0731 33.1834C82.8918 32.7344 83.8169 32.5156 84.75 32.5502C85.5325 32.5232 86.3098 32.6866 87.0152 33.0262C87.7207 33.3659 88.3331 33.8717 88.8 34.5002C89.4836 35.152 90.0133 35.9479 90.3506 36.8301C90.6879 37.7123 90.8243 38.6586 90.75 39.6002ZM87.6 39.6002C87.6663 38.4316 87.3504 37.2733 86.7 36.3002C86.4073 35.8587 86.004 35.5017 85.5302 35.2648C85.0564 35.0279 84.5288 34.9194 84 34.9502C83.2381 34.9705 82.5024 35.2332 81.9 35.7002C81.2824 36.1882 80.8573 36.8789 80.7 37.6502C80.5981 37.9392 80.5474 38.2437 80.55 38.5502V40.9502C80.5257 41.882 80.8462 42.79 81.45 43.5002C81.7439 43.8462 82.1128 44.1206 82.5287 44.3025C82.9446 44.4845 83.3965 44.5692 83.85 44.5502C84.3788 44.5809 84.9064 44.4724 85.3802 44.2356C85.854 43.9987 86.2573 43.6417 86.55 43.2002C87.3174 42.1634 87.6897 40.8869 87.6 39.6002Z" fill="#2B2B2B"/>
<path d="M106.8 39.6002C106.919 41.6819 106.219 43.7275 104.85 45.3002C104.292 45.8891 103.616 46.3538 102.867 46.6639C102.117 46.9741 101.311 47.1227 100.5 47.1002C99.7321 47.1769 98.9582 47.0345 98.268 46.6894C97.5777 46.3442 96.9994 45.8106 96.6 45.1502V52.5002H93.45V37.5002C93.45 36.0002 93.45 34.5002 93.3 32.8502H96L96.1501 35.1002C96.6225 34.2948 97.3043 33.6324 98.1231 33.1834C98.9418 32.7344 99.8669 32.5156 100.8 32.5502C101.583 32.5232 102.36 32.6866 103.065 33.0262C103.771 33.3659 104.383 33.8717 104.85 34.5002C105.534 35.152 106.063 35.9479 106.401 36.8301C106.738 37.7123 106.874 38.6586 106.8 39.6002ZM103.65 39.6002C103.716 38.4316 103.4 37.2733 102.75 36.3002C102.457 35.8587 102.054 35.5017 101.58 35.2648C101.106 35.0279 100.579 34.9194 100.05 34.9502C99.2881 34.9705 98.5525 35.2332 97.95 35.7002C97.3324 36.1882 96.9073 36.8789 96.75 37.6502C96.6482 37.9392 96.5974 38.2437 96.6 38.5502V40.9502C96.5758 41.882 96.8962 42.79 97.5 43.5002C97.7939 43.8462 98.1628 44.1206 98.5787 44.3025C98.9946 44.4845 99.4465 44.5692 99.9001 44.5502C100.429 44.5809 100.956 44.4724 101.43 44.2356C101.904 43.9987 102.307 43.6417 102.6 43.2002C103.367 42.1634 103.74 40.8869 103.65 39.6002Z" fill="#2B2B2B"/>
<path d="M124.8 41.2499C124.814 42.0016 124.675 42.7483 124.392 43.4446C124.108 44.1408 123.685 44.7721 123.15 45.2999C122.427 45.9084 121.591 46.3676 120.69 46.6509C119.789 46.9341 118.841 47.0357 117.9 46.9499C116.17 47.0197 114.456 46.604 112.95 45.7499L113.7 43.1999C115.072 43.9807 116.622 44.3941 118.2 44.3998C119.157 44.4469 120.104 44.1839 120.9 43.6498C121.193 43.3859 121.425 43.0614 121.581 42.6988C121.736 42.3362 121.811 41.9442 121.8 41.5499C121.806 40.8283 121.538 40.1315 121.05 39.5999C120.263 38.9183 119.344 38.4076 118.35 38.0999C114.9 36.8999 113.25 34.9499 113.25 32.5499C113.229 31.8051 113.381 31.0656 113.693 30.3891C114.006 29.7126 114.47 29.1174 115.05 28.6498C116.401 27.5577 118.117 27.0213 119.85 27.1498C121.351 27.0961 122.843 27.4049 124.2 28.0499L123.45 30.5999C122.303 29.9694 121.008 29.6586 119.7 29.6998C118.792 29.6736 117.899 29.9362 117.15 30.4498C116.91 30.6838 116.72 30.9638 116.591 31.2732C116.462 31.5825 116.397 31.9147 116.4 32.2499C116.405 32.6198 116.488 32.9846 116.643 33.3205C116.798 33.6564 117.022 33.956 117.3 34.1998C118.176 34.8295 119.135 35.3343 120.15 35.6998C121.563 36.2115 122.844 37.0314 123.9 38.0999C124.485 39.0468 124.796 40.137 124.8 41.2499Z" fill="#2B2B2B"/>
<path d="M135 35.1H131.55V41.85C131.55 43.5 132.15 44.4 133.35 44.4C133.805 44.4433 134.265 44.3922 134.7 44.25L134.85 46.65C134.082 46.927 133.262 47.0295 132.45 46.95C131.927 46.9983 131.399 46.9291 130.906 46.7474C130.413 46.5657 129.967 46.2762 129.6 45.9C128.768 44.8381 128.39 43.4897 128.55 42.15V35.1H126.45V32.7H128.55V30.15L131.55 29.25V32.7H135V35.1Z" fill="#2B2B2B"/>
<path d="M150.45 39.6001C150.524 41.5131 149.882 43.385 148.65 44.8501C147.99 45.5321 147.196 46.0705 146.319 46.4319C145.441 46.7932 144.499 46.9696 143.55 46.9501C142.621 46.9846 141.697 46.8143 140.841 46.4514C139.986 46.0885 139.221 45.5418 138.6 44.8501C137.37 43.4429 136.726 41.6178 136.8 39.7501C136.754 38.7887 136.903 37.8279 137.238 36.9256C137.573 36.0233 138.087 35.1982 138.75 34.5001C139.401 33.8062 140.193 33.2597 141.072 32.8975C141.952 32.5353 142.899 32.3657 143.85 32.4001C144.779 32.3657 145.703 32.5359 146.559 32.8988C147.414 33.2618 148.179 33.8084 148.8 34.5001C149.92 35.9597 150.503 37.7609 150.45 39.6001ZM147.15 39.7501C147.195 38.5839 146.881 37.432 146.25 36.4501C145.962 35.9487 145.547 35.5322 145.047 35.2425C144.546 34.9528 143.978 34.8003 143.4 34.8003C142.822 34.8003 142.254 34.9528 141.753 35.2425C141.253 35.5322 140.838 35.9487 140.55 36.4501C139.939 37.4406 139.626 38.5864 139.65 39.7501C139.605 40.9163 139.919 42.0682 140.55 43.0501C140.832 43.5565 141.246 43.9771 141.748 44.2676C142.249 44.558 142.82 44.7075 143.4 44.7001C143.976 44.6893 144.54 44.5321 145.038 44.2435C145.537 43.9549 145.954 43.5442 146.25 43.0501C146.861 42.0596 147.174 40.9138 147.15 39.7501Z" fill="#2B2B2B"/>
<path d="M160.5 35.4C160.2 35.4 159.9 35.25 159.45 35.25C158.962 35.2424 158.478 35.3466 158.036 35.5546C157.594 35.7626 157.205 36.0688 156.9 36.45C156.407 37.264 156.147 38.1982 156.15 39.15V46.5H153V36.9C153.03 35.4483 152.98 33.9961 152.85 32.55H155.55L155.7 35.25H155.85C156.17 34.3946 156.683 33.6246 157.35 33C158.019 32.5517 158.796 32.2925 159.6 32.25H160.35V35.4H160.5Z" fill="#2B2B2B"/>
<path d="M174.3 39C174.343 39.4556 174.292 39.9151 174.15 40.35H164.85C164.818 40.9435 164.924 41.5362 165.158 42.0824C165.392 42.6286 165.748 43.1137 166.2 43.5C167.053 44.1784 168.11 44.5484 169.2 44.55C170.477 44.5952 171.751 44.3914 172.95 43.95L173.4 46.05C171.932 46.6786 170.346 46.9855 168.75 46.95C167.81 47.0101 166.868 46.8671 165.988 46.5306C165.108 46.1941 164.31 45.6721 163.65 45C163.029 44.3103 162.55 43.5047 162.242 42.6295C161.933 41.7543 161.8 40.8267 161.85 39.9C161.798 38.0148 162.379 36.1664 163.5 34.65C164.09 33.9117 164.845 33.3231 165.706 32.9321C166.566 32.5411 167.506 32.3588 168.45 32.4C169.332 32.3431 170.214 32.5214 171.004 32.9167C171.795 33.312 172.466 33.9102 172.95 34.65C173.927 35.8809 174.408 37.4324 174.3 39ZM171.45 38.25C171.484 37.4091 171.275 36.5762 170.85 35.85C170.608 35.4304 170.257 35.0836 169.835 34.8461C169.413 34.6086 168.934 34.489 168.45 34.5C167.983 34.4932 167.521 34.5986 167.104 34.8074C166.686 35.0162 166.325 35.3224 166.05 35.7C165.573 36.4218 165.265 37.2423 165.15 38.1H171.45V38.25Z" fill="#2B2B2B"/>
<path d="M68.1 15.4503C68.1544 16.1709 68.048 16.8945 67.7886 17.569C67.5292 18.2434 67.1233 18.8519 66.6 19.3503C65.4319 20.2115 63.9988 20.6361 62.55 20.5503C61.7968 20.5859 61.0419 20.5355 60.3 20.4003V11.1003C61.1935 10.9668 62.0973 10.9166 63 10.9503C64.3355 10.8395 65.6663 11.2122 66.75 12.0003C67.638 12.9268 68.1234 14.1671 68.1 15.4503ZM66.45 15.4503C66.5 14.985 66.4451 14.5144 66.2894 14.0732C66.1336 13.6319 65.8811 13.2311 65.5502 12.9002C65.2193 12.5693 64.8185 12.3167 64.3772 12.161C63.9359 12.0053 63.4653 11.9503 63 12.0003C62.594 11.9661 62.1852 12.0172 61.8 12.1503V19.2003H62.85C63.3374 19.2377 63.8272 19.1774 64.2909 19.0229C64.7546 18.8683 65.1827 18.6226 65.55 18.3003C66.2015 17.4993 66.5233 16.4802 66.45 15.4503Z" fill="#2B2B2B"/>
<path d="M76.5 16.9503C76.5251 17.4136 76.4585 17.8774 76.304 18.3149C76.1496 18.7525 75.9104 19.1553 75.6 19.5003C75.2853 19.8608 74.8912 20.1433 74.4487 20.3255C74.0061 20.5077 73.5273 20.5847 73.05 20.5503C72.5947 20.5844 72.1379 20.5066 71.7195 20.3236C71.3012 20.1405 70.934 19.8579 70.65 19.5003C70.0675 18.778 69.7499 17.8781 69.7499 16.9503C69.7499 16.0224 70.0675 15.1225 70.65 14.4003C70.9647 14.0397 71.3589 13.7572 71.8014 13.575C72.2439 13.3928 72.7227 13.3159 73.2 13.3503C73.6554 13.3161 74.1122 13.394 74.5305 13.577C74.9489 13.76 75.3161 14.0427 75.6 14.4003C75.9104 14.7453 76.1496 15.1481 76.304 15.5856C76.4585 16.0232 76.5251 16.4869 76.5 16.9503ZM75 16.9503C75.0119 16.3684 74.8557 15.7955 74.55 15.3003C74.4334 15.0485 74.2398 14.8402 73.9972 14.7054C73.7546 14.5706 73.4755 14.5163 73.2 14.5503C72.9295 14.5488 72.6632 14.6171 72.4268 14.7485C72.1903 14.8798 71.9917 15.0699 71.85 15.3003C71.5554 15.8003 71.4001 16.37 71.4001 16.9503C71.4001 17.5306 71.5554 18.1003 71.85 18.6003C71.9667 18.8521 72.1603 19.0604 72.4029 19.1952C72.6455 19.3299 72.9246 19.3843 73.2 19.3503C73.4894 19.3531 73.7729 19.2688 74.0137 19.1082C74.2544 18.9477 74.4413 18.7185 74.55 18.4503C74.8757 18.0207 75.0354 17.4881 75 16.9503Z" fill="#2B2B2B"/>
<path d="M88.05 13.5L85.95 20.4H84.6L83.7 17.4C83.4304 16.6703 83.2295 15.917 83.1 15.15C82.9705 15.917 82.7696 16.6703 82.5 17.4L81.6 20.4H80.25L78 13.5H79.5L80.25 16.8L80.7 19.05C80.85 18.45 81 17.7 81.3 16.8L82.2 13.5H83.4L84.3 16.65C84.5696 17.3797 84.7705 18.133 84.9 18.9L85.35 16.65L86.25 13.5H88.05Z" fill="#2B2B2B"/>
<path d="M95.85 20.3998H94.35V16.4998C94.35 15.2998 93.9 14.6998 93 14.6998C92.8028 14.6943 92.6068 14.7317 92.4255 14.8094C92.2442 14.8871 92.082 15.0033 91.95 15.1498C91.6496 15.476 91.4881 15.9065 91.5 16.3498V20.3998H90V13.4998H91.35V14.5498C91.5542 14.2144 91.8069 13.9111 92.1 13.6498C92.4947 13.3679 92.9651 13.2111 93.45 13.1998C93.7512 13.1841 94.0525 13.2292 94.3359 13.3322C94.6194 13.4353 94.8792 13.5943 95.1 13.7998C95.3957 14.0876 95.6182 14.4421 95.7487 14.8336C95.8792 15.2251 95.9139 15.6421 95.85 16.0498V20.3998Z" fill="#2B2B2B"/>
<path d="M100.05 20.3999H98.55V10.3499H100.05V20.3999Z" fill="#2B2B2B"/>
<path d="M109.05 16.9503C109.075 17.4136 109.008 17.8774 108.854 18.3149C108.7 18.7525 108.46 19.1553 108.15 19.5003C107.835 19.8608 107.441 20.1433 106.999 20.3255C106.556 20.5077 106.077 20.5847 105.6 20.5503C105.145 20.5844 104.688 20.5066 104.269 20.3236C103.851 20.1405 103.484 19.8579 103.2 19.5003C102.617 18.778 102.3 17.8781 102.3 16.9503C102.3 16.0224 102.617 15.1225 103.2 14.4003C103.515 14.0397 103.909 13.7572 104.351 13.575C104.794 13.3928 105.273 13.3159 105.75 13.3503C106.205 13.3161 106.662 13.394 107.08 13.577C107.499 13.76 107.866 14.0427 108.15 14.4003C108.46 14.7453 108.7 15.1481 108.854 15.5856C109.008 16.0232 109.075 16.4869 109.05 16.9503ZM107.55 16.9503C107.562 16.3684 107.406 15.7955 107.1 15.3003C106.983 15.0485 106.79 14.8402 106.547 14.7054C106.305 14.5706 106.025 14.5163 105.75 14.5503C105.479 14.5488 105.213 14.6171 104.977 14.7485C104.74 14.8798 104.542 15.0699 104.4 15.3003C104.105 15.8003 103.95 16.37 103.95 16.9503C103.95 17.5306 104.105 18.1003 104.4 18.6003C104.517 18.8521 104.71 19.0604 104.953 19.1952C105.195 19.3299 105.475 19.3843 105.75 19.3503C106.039 19.3531 106.323 19.2688 106.564 19.1082C106.804 18.9477 106.991 18.7185 107.1 18.4503C107.426 18.0207 107.585 17.4881 107.55 16.9503Z" fill="#2B2B2B"/>
<path d="M116.4 20.4H115.05L114.9 19.65C114.666 19.9401 114.369 20.1723 114.03 20.3284C113.692 20.4845 113.322 20.5604 112.95 20.55C112.67 20.5789 112.387 20.5394 112.126 20.4349C111.865 20.3303 111.633 20.164 111.45 19.95C111.128 19.5646 110.921 19.0971 110.85 18.6C110.818 18.2083 110.9 17.8158 111.087 17.4697C111.273 17.1237 111.555 16.839 111.9 16.65C112.825 16.1757 113.864 15.968 114.9 16.05V15.9C114.925 15.7169 114.907 15.5306 114.848 15.3555C114.789 15.1804 114.69 15.0213 114.559 14.8907C114.429 14.76 114.27 14.6613 114.095 14.6022C113.919 14.5431 113.733 14.5253 113.55 14.55C112.921 14.5384 112.3 14.6937 111.75 15L111.45 13.95C112.161 13.4883 113.005 13.2772 113.85 13.35C115.65 13.35 116.55 14.25 116.55 16.2V18.75C116.438 19.2926 116.388 19.8461 116.4 20.4ZM114.9 18V16.95C113.25 16.95 112.35 17.4 112.35 18.3C112.347 18.4388 112.372 18.5768 112.423 18.7057C112.475 18.8346 112.552 18.9516 112.65 19.0498C112.748 19.148 112.865 19.2252 112.994 19.2768C113.123 19.3284 113.261 19.3533 113.4 19.35C113.719 19.3189 114.026 19.2164 114.3 19.05C114.577 18.8726 114.788 18.609 114.9 18.3V18Z" fill="#2B2B2B"/>
<path d="M125.1 20.4H123.75V19.35C123.544 19.7576 123.218 20.0916 122.815 20.3065C122.412 20.5213 121.953 20.6063 121.5 20.55C121.106 20.561 120.714 20.4862 120.351 20.3308C119.988 20.1754 119.664 19.9431 119.4 19.65C119.113 19.2952 118.9 18.8873 118.771 18.4497C118.642 18.0122 118.601 17.5535 118.65 17.1C118.626 16.1225 118.944 15.1673 119.55 14.4C119.823 14.1184 120.149 13.8938 120.51 13.7393C120.87 13.5848 121.258 13.5035 121.65 13.5C122.025 13.4736 122.4 13.5423 122.741 13.6997C123.081 13.857 123.377 14.0979 123.6 14.4V10.5H125.1V20.4ZM123.6 17.55V15.9C123.454 15.5675 123.251 15.263 123 15C122.858 14.8748 122.691 14.7829 122.509 14.731C122.327 14.6791 122.136 14.6685 121.95 14.7C121.679 14.6986 121.413 14.7668 121.177 14.8982C120.94 15.0295 120.742 15.2196 120.6 15.45C120.275 15.9924 120.119 16.6187 120.15 17.25C120.117 17.8342 120.275 18.4133 120.6 18.9C120.742 19.1304 120.94 19.3205 121.177 19.4518C121.413 19.5832 121.679 19.6514 121.95 19.65C122.185 19.6619 122.419 19.6129 122.629 19.5078C122.839 19.4027 123.019 19.245 123.15 19.05C123.416 18.5925 123.57 18.0785 123.6 17.55Z" fill="#2B2B2B"/>
<path d="M138.15 16.9503C138.175 17.4136 138.108 17.8774 137.954 18.3149C137.8 18.7525 137.56 19.1553 137.25 19.5003C136.935 19.8608 136.541 20.1433 136.099 20.3255C135.656 20.5077 135.177 20.5847 134.7 20.5503C134.245 20.5844 133.788 20.5066 133.37 20.3236C132.951 20.1405 132.584 19.8579 132.3 19.5003C131.718 18.778 131.4 17.8781 131.4 16.9503C131.4 16.0224 131.718 15.1225 132.3 14.4003C132.615 14.0397 133.009 13.7572 133.451 13.575C133.894 13.3928 134.373 13.3159 134.85 13.3503C135.305 13.3161 135.762 13.394 136.181 13.577C136.599 13.76 136.966 14.0427 137.25 14.4003C137.56 14.7453 137.8 15.1481 137.954 15.5856C138.108 16.0232 138.175 16.4869 138.15 16.9503ZM136.5 16.9503C136.512 16.3684 136.356 15.7955 136.05 15.3003C135.933 15.0485 135.74 14.8402 135.497 14.7054C135.255 14.5706 134.975 14.5163 134.7 14.5503C134.43 14.5488 134.163 14.6171 133.927 14.7485C133.69 14.8798 133.492 15.0699 133.35 15.3003C133.055 15.8003 132.9 16.37 132.9 16.9503C132.9 17.5306 133.055 18.1003 133.35 18.6003C133.467 18.8521 133.66 19.0604 133.903 19.1952C134.145 19.3299 134.425 19.3843 134.7 19.3503C134.989 19.3531 135.273 19.2688 135.514 19.1082C135.754 18.9477 135.941 18.7185 136.05 18.4503C136.376 18.0207 136.535 17.4881 136.5 16.9503Z" fill="#2B2B2B"/>
<path d="M146.4 20.3998H144.9V16.4998C144.9 15.2998 144.45 14.6998 143.55 14.6998C143.353 14.6943 143.157 14.7317 142.976 14.8094C142.794 14.8871 142.632 15.0033 142.5 15.1498C142.2 15.476 142.038 15.9065 142.05 16.3498V20.3998H140.55V13.4998H141.9V14.5498C142.104 14.2145 142.357 13.9112 142.65 13.6498C143.045 13.3679 143.515 13.2111 144 13.1998C144.301 13.1841 144.603 13.2292 144.886 13.3322C145.169 13.4353 145.429 13.5943 145.65 13.7998C145.946 14.0876 146.168 14.4421 146.299 14.8336C146.429 15.2251 146.464 15.6421 146.4 16.0498V20.3998Z" fill="#2B2B2B"/>
<path d="M156.6 14.6999H154.95V17.9999C154.95 18.8999 155.25 19.1999 155.85 19.1999H156.6V20.3999C156.215 20.5329 155.806 20.584 155.4 20.5499C155.142 20.5787 154.881 20.5383 154.644 20.4328C154.406 20.3274 154.202 20.1607 154.05 19.9499C153.706 19.4158 153.548 18.783 153.6 18.1499V14.6999H152.55V13.4999H153.6V12.2999L155.1 11.8499V13.4999H156.75V14.6999H156.6Z" fill="#2B2B2B"/>
<path d="M164.7 20.3999H163.2V16.4999C163.2 15.2999 162.75 14.6999 161.85 14.6999C161.517 14.6746 161.186 14.7654 160.912 14.9568C160.639 15.1483 160.44 15.4285 160.35 15.7499V20.3999H158.85V10.3499H160.35V14.5499C160.562 14.1818 160.869 13.8768 161.238 13.666C161.607 13.4551 162.025 13.346 162.45 13.3499C162.73 13.321 163.013 13.3605 163.274 13.465C163.535 13.5695 163.767 13.7359 163.95 13.9499C164.464 14.5844 164.73 15.3838 164.7 16.1999V20.3999Z" fill="#2B2B2B"/>
<path d="M172.95 16.65V17.4H168.45C168.44 17.6781 168.488 17.9551 168.592 18.2133C168.695 18.4716 168.851 18.7055 169.05 18.9C169.49 19.2047 170.015 19.3622 170.55 19.35C171.162 19.3492 171.77 19.2479 172.35 19.05L172.65 20.1C171.945 20.4221 171.175 20.5762 170.4 20.55C169.719 20.5198 169.06 20.2975 168.5 19.9088C167.94 19.5202 167.501 18.9809 167.235 18.3535C166.968 17.726 166.884 17.0359 166.993 16.3629C167.102 15.6899 167.399 15.0614 167.85 14.55C168.134 14.1924 168.501 13.9098 168.919 13.7268C169.338 13.5437 169.795 13.4659 170.25 13.5C170.685 13.4497 171.126 13.5212 171.524 13.7066C171.921 13.892 172.259 14.184 172.5 14.55C172.84 15.1955 172.996 15.922 172.95 16.65ZM171.6 16.2C171.59 15.7828 171.487 15.373 171.3 15C171.181 14.7935 171.003 14.6266 170.79 14.5199C170.577 14.4133 170.337 14.3716 170.1 14.4C169.865 14.3881 169.631 14.4371 169.421 14.5422C169.211 14.6474 169.031 14.8051 168.9 15C168.6 15.3263 168.438 15.7567 168.45 16.2H171.6Z" fill="#2B2B2B"/>
<path d="M195 1.2C196.668 1.20984 198.265 1.87675 199.444 3.0561C200.623 4.23545 201.29 5.83217 201.3 7.5V52.5C201.29 54.1678 200.623 55.7645 199.444 56.9439C198.265 58.1233 196.668 58.7902 195 58.8H7.5C5.83217 58.7902 4.23545 58.1233 3.0561 56.9439C1.87675 55.7645 1.20984 54.1678 1.2 52.5V7.5C1.20984 5.83217 1.87675 4.23545 3.0561 3.0561C4.23545 1.87675 5.83217 1.20984 7.5 1.2H195ZM195 0H7.5C5.5127 0.00593523 3.6085 0.798018 2.20326 2.20326C0.79802 3.60849 0.00593642 5.5127 1.19192e-06 7.5V52.5C-0.00982287 53.4876 0.17746 54.4673 0.550891 55.3817C0.924323 56.2961 1.4764 57.1268 2.1748 57.8252C2.87321 58.5236 3.70391 59.0757 4.61829 59.4491C5.53267 59.8225 6.51236 60.0098 7.5 60H195C195.988 60.0098 196.967 59.8225 197.882 59.4491C198.796 59.0757 199.627 58.5236 200.325 57.8252C201.024 57.1268 201.576 56.2961 201.949 55.3817C202.323 54.4673 202.51 53.4876 202.5 52.5V7.5C202.494 5.5127 201.702 3.60849 200.297 2.20326C198.891 0.798018 196.987 0.00593523 195 0Z" fill="#2B2B2B"/>
</g>
<defs>
<clipPath id="clip0_738_1341">
<rect width="202.5" height="60" fill="white"/>
</clipPath>
</defs>
</svg>
