<svg width="203" height="60" viewBox="0 0 203 60" fill="none" xmlns="http://www.w3.org/2000/svg">
<g clip-path="url(#clip0_738_1367)">
<path d="M195.484 1.2C197.151 1.21062 198.748 1.87778 199.927 3.05696C201.106 4.23615 201.773 5.83241 201.784 7.5V52.5C201.773 54.1676 201.106 55.7639 199.927 56.943C198.748 58.1222 197.151 58.7894 195.484 58.8H8.00041C6.33283 58.7894 4.73656 58.1222 3.55737 56.943C2.37819 55.7639 1.71103 54.1676 1.70041 52.5V7.5C1.71103 5.83241 2.37819 4.23615 3.55737 3.05696C4.73656 1.87778 6.33283 1.21062 8.00041 1.2H195.484ZM195.484 0H8.00041C6.01287 0.00514756 4.10821 0.796977 2.7028 2.20239C1.29739 3.60779 0.505562 5.51246 0.500414 7.5V52.5C0.489977 53.4878 0.676843 54.4678 1.05006 55.3824C1.42327 56.2971 1.97532 57.128 2.67385 57.8266C3.37238 58.5251 4.20333 59.0771 5.11799 59.4504C6.03264 59.8236 7.0126 60.0104 8.00041 60H195.484C196.472 60.0102 197.452 59.8232 198.366 59.4499C199.281 59.0767 200.112 58.5246 200.81 57.8261C201.508 57.1276 202.061 56.2968 202.434 55.3822C202.807 54.4676 202.994 53.4878 202.984 52.5V7.5C202.979 5.51246 202.187 3.60779 200.782 2.20239C199.376 0.796977 197.471 0.00514756 195.484 0Z" fill="#2B2B2B"/>
<path d="M102.313 32.8618C101.461 32.8423 100.613 32.9958 99.8218 33.313C99.0304 33.6303 98.3116 34.1047 97.7087 34.7076C97.1059 35.3104 96.6315 36.0293 96.3142 36.8206C95.997 37.612 95.8435 38.4594 95.8629 39.3118C95.8566 40.1606 96.019 41.0022 96.3409 41.7876C96.6627 42.5731 97.1376 43.2867 97.7379 43.8869C98.3381 44.4871 99.0516 44.962 99.8371 45.2838C100.623 45.6057 101.464 45.7682 102.313 45.7618C103.165 45.7813 104.013 45.6277 104.804 45.3105C105.595 44.9932 106.314 44.5189 106.917 43.916C107.52 43.3131 107.994 42.5943 108.312 41.803C108.629 41.0116 108.782 40.1641 108.763 39.3118C108.795 38.4562 108.65 37.6033 108.337 36.8064C108.024 36.0095 107.55 35.2857 106.944 34.6803C106.339 34.0749 105.615 33.601 104.818 33.288C104.021 32.9751 103.168 32.83 102.313 32.8618ZM102.313 43.0618C101.336 42.9803 100.425 42.5347 99.761 41.8131C99.097 41.0916 98.7285 40.1468 98.7285 39.1663C98.7285 38.1857 99.097 37.241 99.761 36.5194C100.425 35.7979 101.336 35.3522 102.313 35.2708C102.811 35.2731 103.303 35.3779 103.759 35.5786C104.214 35.7794 104.624 36.0717 104.961 36.4376C105.299 36.8035 105.558 37.235 105.722 37.7052C105.885 38.1754 105.95 38.6743 105.913 39.1708C105.936 39.6636 105.861 40.1561 105.692 40.6195C105.523 41.083 105.263 41.5082 104.928 41.8704C104.593 42.2325 104.189 42.5243 103.74 42.7289C103.291 42.9334 102.806 43.0466 102.313 43.0618ZM88.3629 32.8618C87.5106 32.8423 86.6632 32.9958 85.8718 33.313C85.0804 33.6303 84.3615 34.1047 83.7587 34.7076C83.1558 35.3104 82.6815 36.0293 82.3642 36.8206C82.047 37.612 81.8935 38.4594 81.913 39.3118C81.9066 40.1606 82.069 41.0022 82.3909 41.7876C82.7127 42.5731 83.1877 43.2867 83.7879 43.8869C84.3881 44.4871 85.1017 44.962 85.8871 45.2838C86.6725 45.6057 87.5141 45.7682 88.3629 45.7618C89.2153 45.7813 90.0627 45.6277 90.8541 45.3105C91.6455 44.9932 92.3643 44.5189 92.9671 43.916C93.57 43.3131 94.0444 42.5943 94.3617 41.803C94.6789 41.0116 94.8324 40.1641 94.8129 39.3118C94.8447 38.4562 94.6996 37.6033 94.3867 36.8064C94.0737 36.0095 93.5998 35.2857 92.9944 34.6803C92.389 34.0749 91.6652 33.601 90.8683 33.288C90.0714 32.9751 89.2185 32.83 88.3629 32.8618ZM88.3629 43.0618C87.3858 42.9803 86.4749 42.5347 85.811 41.8131C85.1471 41.0916 84.7786 40.1468 84.7786 39.1663C84.7786 38.1857 85.1471 37.241 85.811 36.5194C86.4749 35.7979 87.3858 35.3522 88.3629 35.2708C88.8606 35.2737 89.3524 35.379 89.8077 35.5799C90.2631 35.7809 90.6722 36.0733 91.0098 36.439C91.3474 36.8047 91.6062 37.236 91.7702 37.7059C91.9341 38.1758 91.9997 38.6744 91.9629 39.1708C91.9858 39.6635 91.9105 40.156 91.7413 40.6194C91.5722 41.0827 91.3125 41.5078 90.9775 41.8699C90.6425 42.232 90.2388 42.5239 89.79 42.7285C89.3411 42.9331 88.856 43.0464 88.3629 43.0618ZM71.7129 34.8118V37.5118H78.163C78.065 38.7977 77.5366 40.0131 76.663 40.9618C76.017 41.6107 75.2438 42.1189 74.3919 42.4545C73.54 42.7901 72.6279 42.9458 71.7129 42.9118C70.7716 42.9216 69.8381 42.7409 68.9685 42.3806C68.0989 42.0203 67.3111 41.4878 66.6525 40.8152C65.9939 40.1427 65.4782 39.3438 65.1363 38.4668C64.7944 37.5897 64.6334 36.6526 64.663 35.7118C64.6465 34.7743 64.8164 33.843 65.163 32.9718C65.5096 32.1006 66.0258 31.307 66.6818 30.637C67.3378 29.9671 68.1204 29.4342 68.9841 29.0694C69.8478 28.7045 70.7753 28.515 71.7129 28.5118C73.5471 28.5279 75.3106 29.2225 76.663 30.4618L78.6129 28.5118C76.8028 26.7635 74.3795 25.7942 71.8629 25.8118C69.2373 25.8118 66.7192 26.8548 64.8625 28.7114C63.0059 30.568 61.9629 33.0861 61.9629 35.7118C61.9629 38.3374 63.0059 40.8555 64.8625 42.7121C66.7192 44.5687 69.2373 45.6118 71.8629 45.6118C73.1531 45.6836 74.4428 45.4648 75.637 44.9715C76.8313 44.4783 77.8995 43.7231 78.7629 42.7618C80.3461 41.0503 81.2061 38.7928 81.163 36.4618C81.1963 35.9074 81.1457 35.3511 81.0129 34.8118L71.7129 34.8193V34.8118ZM139.813 36.9118C139.444 35.7598 138.727 34.751 137.759 34.0253C136.791 33.2996 135.622 32.893 134.413 32.8618C133.588 32.8661 132.772 33.0393 132.016 33.3708C131.26 33.7023 130.58 34.1851 130.018 34.7894C129.456 35.3937 129.024 36.1067 128.748 36.8845C128.471 37.6622 128.358 38.4883 128.413 39.3118C128.39 40.1525 128.536 40.9893 128.842 41.7726C129.148 42.5558 129.609 43.2695 130.197 43.8711C130.784 44.4728 131.487 44.9502 132.263 45.275C133.039 45.5998 133.872 45.7653 134.713 45.7618C135.758 45.7729 136.789 45.5169 137.708 45.0182C138.627 44.5194 139.403 43.7944 139.963 42.9118L137.863 41.4118C137.54 41.96 137.079 42.4145 136.527 42.7302C135.975 43.0458 135.349 43.2118 134.713 43.2118C134.052 43.2451 133.396 43.0764 132.834 42.7281C132.271 42.3797 131.828 41.8683 131.563 41.2618L140.113 37.6618L139.813 36.9118ZM131.113 39.0118C131.082 38.0841 131.407 37.1797 132.02 36.483C132.633 35.7862 133.489 35.3495 134.413 35.2618C134.898 35.2444 135.379 35.3611 135.803 35.5993C136.226 35.8375 136.576 36.1878 136.813 36.6118L131.113 39.0118ZM124.063 45.1618H126.913V26.4118H124.063V45.1618ZM119.563 34.2118C118.656 33.2759 117.416 32.7366 116.113 32.7118C114.455 32.789 112.89 33.5025 111.745 34.7038C110.599 35.9052 109.961 37.5019 109.963 39.1618C109.952 39.9797 110.102 40.7917 110.405 41.5514C110.708 42.311 111.158 43.0033 111.73 43.5886C112.301 44.1739 112.983 44.6407 113.735 44.9622C114.487 45.2836 115.295 45.4534 116.113 45.4618C116.739 45.466 117.358 45.3341 117.928 45.0751C118.498 44.816 119.005 44.4362 119.413 43.9618H119.563V44.8618C119.644 45.6885 119.421 46.5164 118.935 47.1902C118.449 47.864 117.734 48.3374 116.924 48.5215C116.114 48.7056 115.265 48.5878 114.535 48.1901C113.806 47.7925 113.247 47.1424 112.963 46.3618L110.563 47.4118C111.041 48.5266 111.836 49.4763 112.85 50.143C113.863 50.8096 115.05 51.1639 116.263 51.1618C119.563 51.1618 122.263 49.2118 122.263 44.5618V33.1618H119.563V34.2118ZM116.263 43.0618C115.286 42.9803 114.375 42.5347 113.711 41.8131C113.047 41.0916 112.679 40.1468 112.679 39.1663C112.679 38.1857 113.047 37.241 113.711 36.5194C114.375 35.7979 115.286 35.3522 116.263 35.2708C117.215 35.3861 118.092 35.8461 118.728 36.5639C119.364 37.2816 119.715 38.2073 119.715 39.1663C119.715 40.1252 119.364 41.051 118.728 41.7687C118.092 42.4864 117.215 42.9464 116.263 43.0618ZM152.863 26.4118H146.113V45.1618H148.963V38.1118H152.863C153.658 38.1559 154.455 38.0373 155.203 37.7633C155.951 37.4892 156.635 37.0655 157.214 36.5179C157.793 35.9704 158.254 35.3105 158.569 34.5787C158.884 33.8469 159.047 33.0585 159.047 32.2618C159.047 31.465 158.884 30.6766 158.569 29.9448C158.254 29.213 157.793 28.5532 157.214 28.0056C156.635 27.458 155.951 27.0343 155.203 26.7602C154.455 26.4862 153.658 26.3677 152.863 26.4118ZM153.013 35.4118H148.963V28.9618H153.013C153.863 28.9587 154.682 29.285 155.297 29.8722C155.913 30.4595 156.276 31.2621 156.313 32.1118C156.282 32.977 155.924 33.7984 155.312 34.4106C154.699 35.0228 153.878 35.3805 153.013 35.4118ZM170.263 32.7118C169.246 32.6296 168.229 32.8581 167.345 33.3671C166.461 33.876 165.752 34.6413 165.313 35.5618L167.863 36.6118C168.112 36.1641 168.485 35.7983 168.938 35.5586C169.39 35.319 169.903 35.2159 170.413 35.2618C171.124 35.2068 171.83 35.4242 172.387 35.8697C172.944 36.3153 173.31 36.9559 173.413 37.6618V37.8118C172.541 37.3275 171.561 37.0697 170.563 37.0618C167.863 37.0618 165.163 38.5618 165.163 41.2618C165.188 41.8444 165.329 42.4162 165.577 42.9439C165.825 43.4716 166.176 43.9446 166.608 44.3355C167.041 44.7264 167.547 45.0272 168.098 45.2206C168.648 45.4139 169.231 45.4959 169.813 45.4618C170.516 45.4871 171.214 45.3356 171.843 45.0211C172.472 44.7066 173.012 44.2392 173.413 43.6618H173.563V45.1618H176.263V37.9618C176.156 36.4728 175.466 35.0863 174.342 34.1033C173.219 33.1203 171.753 32.6202 170.263 32.7118ZM169.963 43.0618C169.063 43.0618 167.713 42.6118 167.713 41.4118C167.713 39.9118 169.363 39.4618 170.713 39.4618C171.597 39.4657 172.469 39.6709 173.263 40.0618C173.148 40.8677 172.755 41.6083 172.153 42.1559C171.551 42.7035 170.776 43.0238 169.963 43.0618ZM185.713 33.1618L182.563 41.2618H182.413L179.113 33.1618H176.113L181.063 44.5618L178.213 50.8618H181.063L188.713 33.1618H185.713ZM160.513 45.1618H163.363V26.4118H160.513V45.1618Z" fill="#2B2B2B"/>
<path d="M16.1004 11.25C15.6361 11.8459 15.421 12.5987 15.5004 13.35V46.5C15.465 47.2713 15.7344 48.0256 16.2504 48.6L16.4004 48.75L35.0004 30.15V29.85L16.1004 11.25Z" fill="#00D5FF"/>
<path d="M41.0004 36.4487L34.8503 30.2987V29.8487L41.0004 23.6987L41.1503 23.8487L48.5004 28.0487C50.6004 29.2487 50.6004 31.1987 48.5004 32.3987L41.0004 36.4487Z" fill="#FFDD00"/>
<path d="M41.1503 36.3L34.8503 30L16.1003 48.75C16.8503 49.5 17.9003 49.5 19.2503 48.9L41.1503 36.3Z" fill="#FA3746"/>
<path d="M41.1503 23.6983L19.2503 11.2483C18.7937 10.8934 18.2253 10.7135 17.6476 10.741C17.07 10.7685 16.5212 11.0016 16.1003 11.3983L34.8503 29.9983L41.1503 23.6983Z" fill="#00F076"/>
<path opacity="0.2" d="M41.0003 36.147L19.2503 48.447C18.8213 48.7803 18.2936 48.9612 17.7503 48.9612C17.2071 48.9612 16.6793 48.7803 16.2503 48.447L16.1003 48.597L16.2503 48.747C16.6793 49.0802 17.2071 49.2612 17.7503 49.2612C18.2936 49.2612 18.8213 49.0802 19.2503 48.747L41.0003 36.147Z" fill="black"/>
<path opacity="0.12" d="M16.1004 48.45C15.6359 47.8541 15.4208 47.1013 15.5004 46.35V46.5C15.4651 47.2713 15.7344 48.0256 16.2504 48.6V48.45H16.1004ZM48.5004 31.95L41.0004 36.15L41.1504 36.3L48.5004 32.1C48.9186 31.9207 49.2796 31.63 49.5441 31.2598C49.8086 30.8895 49.9664 30.4538 50.0004 30C50.0004 30.75 49.4004 31.35 48.5004 31.95Z" fill="black"/>
<path opacity="0.25" d="M19.2504 11.4043L48.5004 28.0543C49.4004 28.6543 50.0004 29.2543 50.0004 30.0043C49.9656 29.5508 49.8074 29.1154 49.543 28.7453C49.2787 28.3751 48.9181 28.0843 48.5004 27.9043L19.2504 11.2438C17.1504 10.0438 15.5004 10.9438 15.5004 13.3438V13.4938C15.5004 11.2498 17.1504 10.2058 19.2504 11.4043Z" fill="#2B2B2B"/>
<path d="M67.2841 15.2085V17.5508C67.205 17.668 67.079 17.7998 66.9061 17.9463C66.7333 18.0898 66.4945 18.2158 66.1898 18.3242C65.8881 18.4297 65.4984 18.4824 65.0209 18.4824C64.6312 18.4824 64.2723 18.415 63.9442 18.2803C63.619 18.1426 63.3363 17.9434 63.0961 17.6826C62.8588 17.4189 62.6742 17.0996 62.5424 16.7246C62.4135 16.3467 62.349 15.9189 62.349 15.4414V14.9448C62.349 14.4673 62.4047 14.041 62.516 13.666C62.6302 13.291 62.7972 12.9731 63.017 12.7124C63.2367 12.4487 63.5062 12.2495 63.8256 12.1147C64.1449 11.9771 64.5111 11.9082 64.9242 11.9082C65.4135 11.9082 65.8221 11.9932 66.1503 12.1631C66.4813 12.3301 66.7391 12.5615 66.9237 12.8574C67.1112 13.1533 67.2313 13.4902 67.2841 13.8682H66.4359C66.3978 13.6367 66.3217 13.4258 66.2074 13.2354C66.0961 13.0449 65.9364 12.8926 65.7284 12.7783C65.5204 12.6611 65.2523 12.6025 64.9242 12.6025C64.6283 12.6025 64.3719 12.6567 64.1552 12.7651C63.9384 12.8735 63.7596 13.0288 63.619 13.231C63.4784 13.4331 63.3729 13.6777 63.3026 13.9648C63.2352 14.252 63.2015 14.5757 63.2015 14.936V15.4414C63.2015 15.8105 63.244 16.1401 63.329 16.4302C63.4169 16.7202 63.5414 16.9678 63.7025 17.1729C63.8636 17.375 64.0555 17.5288 64.2782 17.6343C64.5038 17.7397 64.7528 17.7925 65.0253 17.7925C65.327 17.7925 65.5717 17.7676 65.7592 17.7178C65.9467 17.665 66.0931 17.6035 66.1986 17.5332C66.3041 17.46 66.3846 17.3911 66.4403 17.3267V15.894H64.9594V15.2085H67.2841ZM72.7552 17.7046V18.3945H69.3671V17.7046H72.7552ZM69.5385 11.9961V18.3945H68.6903V11.9961H69.5385ZM72.307 14.7471V15.437H69.3671V14.7471H72.307ZM72.7113 11.9961V12.6904H69.3671V11.9961H72.7113ZM76.2577 11.9961V18.3945H75.4227V11.9961H76.2577ZM78.3143 11.9961V12.6904H73.3705V11.9961H78.3143ZM82.2299 11.9961V18.3945H81.3817V11.9961H82.2299ZM86.0048 11.9961V18.3945H85.1698V11.9961H86.0048ZM88.0614 11.9961V12.6904H83.1176V11.9961H88.0614ZM95.9935 14.9932V15.3975C95.9935 15.8779 95.9335 16.3086 95.8134 16.6895C95.6932 17.0703 95.5204 17.394 95.2948 17.6606C95.0692 17.9272 94.7982 18.1309 94.4818 18.2715C94.1683 18.4121 93.8168 18.4824 93.4271 18.4824C93.0492 18.4824 92.702 18.4121 92.3856 18.2715C92.0721 18.1309 91.7997 17.9272 91.5682 17.6606C91.3397 17.394 91.1625 17.0703 91.0365 16.6895C90.9105 16.3086 90.8475 15.8779 90.8475 15.3975V14.9932C90.8475 14.5127 90.9091 14.0835 91.0321 13.7056C91.1581 13.3247 91.3353 13.001 91.5638 12.7344C91.7924 12.4648 92.0634 12.2598 92.3768 12.1191C92.6932 11.9785 93.0404 11.9082 93.4183 11.9082C93.808 11.9082 94.1595 11.9785 94.473 12.1191C94.7894 12.2598 95.0604 12.4648 95.286 12.7344C95.5145 13.001 95.6888 13.3247 95.809 13.7056C95.932 14.0835 95.9935 14.5127 95.9935 14.9932ZM95.1542 15.3975V14.9844C95.1542 14.6035 95.1146 14.2666 95.0355 13.9736C94.9594 13.6807 94.8466 13.4346 94.6971 13.2354C94.5477 13.0361 94.3646 12.8853 94.1478 12.7827C93.934 12.6802 93.6908 12.6289 93.4183 12.6289C93.1547 12.6289 92.9159 12.6802 92.702 12.7827C92.4911 12.8853 92.3094 13.0361 92.1571 13.2354C92.0077 13.4346 91.892 13.6807 91.8099 13.9736C91.7279 14.2666 91.6869 14.6035 91.6869 14.9844V15.3975C91.6869 15.7812 91.7279 16.1211 91.8099 16.417C91.892 16.71 92.0092 16.9575 92.1615 17.1597C92.3168 17.3589 92.4999 17.5098 92.7108 17.6123C92.9247 17.7148 93.1635 17.7661 93.4271 17.7661C93.7025 17.7661 93.9471 17.7148 94.161 17.6123C94.3749 17.5098 94.5551 17.3589 94.7015 17.1597C94.851 16.9575 94.9637 16.71 95.0399 16.417C95.1161 16.1211 95.1542 15.7812 95.1542 15.3975ZM102.185 11.9961V18.3945H101.333L98.1117 13.4595V18.3945H97.2635V11.9961H98.1117L101.346 16.9443V11.9961H102.185Z" fill="#2B2B2B"/>
</g>
<defs>
<clipPath id="clip0_738_1367">
<rect width="202.483" height="60" fill="white" transform="translate(0.5)"/>
</clipPath>
</defs>
</svg>
